# xmcd CD database file
#
# Track frame offsets:
#	183
#	14278
#	27993
#	39263
#	53148
#	64483
#	76783
#	90008
#	104210
#	118888
#	130875
#	149320
#	161285
#	173983
#	187275
#	200638
#	212530
#	227423
#	241278
#	255193
#	269783
#	284738
#
# Disc length: 3975 seconds
#
# Revision: 0
# Processed by: cddbd v1.5.1PL0 Copyright (c) Steve Scherf et al.
# Submitted via: CDex 1.51
#
DISCID=3e0f8516
DTITLE=Ella Fitzgerald - 1935-1939 L'art Vocal 5
DYEAR=1990
DGENRE=Jazz
TTITLE0=Rhythm And Romance (1935)
TTITLE1=My Melancoly Baby (1936)
TTITLE2=When I Get Low I Get High (1936)
TTITLE3=A Little Bit Later On (1936)
TTITLE4=Vote For Mr Rhythm (1936)
TTITLE5=My Last Affair (1936)
TTITLE6=Shine (1936)
TTITLE7=You Showed Me The Way (1937)
TTITLE8=Rock It For Me (1937)
TTITLE9=If Dreams Come True (1937)
TTITLE10=Halle Lujah ! (1937)
TTITLE11=A-Tisket, A-Tasket (1938)
TTITLE12=Ella (1938)
TTITLE13=Gotta Pebble In My Shoe (1938)
TTITLE14=F.D.R. Jones (1938)
TTITLE15=I Found My Yellow Basket (1938)
TTITLE16=Undecided (1939)
TTITLE17='tain't What You Do (1939)
TTITLE18=Chew-Chew-Chew (Your Bubble Gum) (1939)
TTITLE19=Don't Worry About Me (1939)
TTITLE20=Stairway To The Stars (1939)
TTITLE21=Out Of Nowhere (1939)
EXTD=YEAR: 1990
EXTT0=
EXTT1=
EXTT2=
EXTT3=
EXTT4=
EXTT5=
EXTT6=
EXTT7=
EXTT8=
EXTT9=
EXTT10=
EXTT11=
EXTT12=
EXTT13=
EXTT14=
EXTT15=
EXTT16=
EXTT17=
EXTT18=
EXTT19=
EXTT20=
EXTT21=
PLAYORDER=
